<svg width="19" height="12" viewBox="0 0 19 12" fill="none" xmlns="http://www.w3.org/2000/svg">
<path d="M18.378 1.80145L7.07668 11.6861C6.97825 11.7725 6.86129 11.8411 6.73251 11.8879C6.60372 11.9346 6.46565 11.9587 6.32621 11.9587C6.18676 11.9587 6.04869 11.9346 5.9199 11.8879C5.79112 11.8411 5.67416 11.7725 5.57573 11.6861L0.631414 7.36159C0.53286 7.27539 0.454683 7.17306 0.401346 7.06043C0.348009 6.9478 0.320557 6.82709 0.320557 6.70519C0.320557 6.58328 0.348009 6.46257 0.401346 6.34994C0.454683 6.23732 0.53286 6.13498 0.631414 6.04878C0.729968 5.96258 0.846969 5.8942 0.975736 5.84755C1.1045 5.8009 1.24251 5.77689 1.38189 5.77689C1.52127 5.77689 1.65928 5.8009 1.78805 5.84755C1.91681 5.8942 2.03381 5.96258 2.13237 6.04878L6.32709 9.7177L16.8788 0.490184C17.0778 0.316095 17.3478 0.218292 17.6293 0.218292C17.9107 0.218292 18.1807 0.316095 18.3797 0.490184C18.5788 0.664274 18.6906 0.90039 18.6906 1.14659C18.6906 1.39279 18.5788 1.62891 18.3797 1.803L18.378 1.80145Z" fill="white"/>
</svg>
